HIERARCHY
ROOT Hips
{
	OFFSET 0.00000 0.00000 0.00000
	CHANNELS 6 Xposition Yposition Zposition Zrotation Yrotation Xrotation 
	JOINT LHipJoint
	{
		OFFSET 0 0 0
		CHANNELS 3 Zrotation Yrotation Xrotation
		JOINT LeftHip
		{
			OFFSET 1.66553 -1.82942 0.76350
			CHANNELS 3 Zrotation Yrotation Xrotation
			JOINT LeftKnee
			{
				OFFSET 2.41740 -6.64177 0.00000
				CHANNELS 3 Zrotation Yrotation Xrotation
				JOINT LeftAnkle
				{
					OFFSET 2.71614 -7.46254 0.00000
					CHANNELS 3 Zrotation Yrotation Xrotation
					JOINT LeftToe
					{
						OFFSET 0.08005 -0.21993 1.82495
						CHANNELS 3 Zrotation Yrotation Xrotation
						End Site
						{
							OFFSET 0.00000 -0.00000 0.93441
						}
					}
				}
			}
		}
	}
	JOINT RHipJoint
	{
		OFFSET 0 0 0
		CHANNELS 3 Zrotation Yrotation Xrotation
		JOINT RightHip
		{
			OFFSET -1.63725 -1.82942 0.76350
			CHANNELS 3 Zrotation Yrotation Xrotation
			JOINT RightKnee
			{
				OFFSET -2.40538 -6.60872 0.00000
				CHANNELS 3 Zrotation Yrotation Xrotation
				JOINT RightAnkle
				{
					OFFSET -2.73312 -7.50919 0.00000
					CHANNELS 3 Zrotation Yrotation Xrotation
					JOINT RightToe
					{
						OFFSET -0.15567 -0.42769 1.93504
						CHANNELS 3 Zrotation Yrotation Xrotation
						End Site
						{
							OFFSET -0.00000 -0.00000 1.00100
						}
					}
				}
			}
		}
	}
	JOINT lowerback
	{
		OFFSET 0 0 0
		CHANNELS 3 Zrotation Yrotation Xrotation
		JOINT Chest
		{
			OFFSET 0.00326 2.30118 -0.13017
			CHANNELS 3 Zrotation Yrotation Xrotation
			JOINT Chest2
			{
				OFFSET 0.02887 2.30677 0.00834
				CHANNELS 3 Zrotation Yrotation Xrotation
				JOINT lowerneck
				{
					OFFSET 0 0 0
					CHANNELS 3 Zrotation Yrotation Xrotation
					JOINT Neck
					{
						OFFSET 0.12946 1.68326 0.00713
						CHANNELS 3 Zrotation Yrotation Xrotation
						JOINT Head
						{
							OFFSET -0.24364 1.67243 -0.16079
							CHANNELS 3 Zrotation Yrotation Xrotation
							End Site
							{
								OFFSET -0.09229 1.70819 -0.06383
							}
						}
					}
				}
				JOINT LeftCollar
				{
					OFFSET 0 0 0
					CHANNELS 3 Zrotation Yrotation Xrotation
					JOINT LeftShoulder
					{
						OFFSET 3.28104 0.69567 -0.00556
CHANNELS 3 Zrotation Xrotation Yrotation
						JOINT LeftElbow
						{
OFFSET 0 -5.707060 -0.000000
CHANNELS 3 Zrotation Xrotation Yrotation
							JOINT LeftWrist
							{
OFFSET 0 -3.332430 0.000000
CHANNELS 3 Zrotation Xrotation Yrotation
								JOINT lhand
								{
									OFFSET 0 0 0
CHANNELS 3 Zrotation Xrotation Yrotation
									JOINT LFingers
									{
OFFSET 0 -0.792690 0.000000
CHANNELS 3 Zrotation Xrotation Yrotation
										End Site
										{
OFFSET 0 -0.639090 0.000000
										}
									}
								}
								JOINT LThumb
								{
OFFSET 0 0.000000 0.000000
CHANNELS 3 Zrotation Xrotation Yrotation
									End Site
									{
OFFSET 0 -0.648840 0.648840
									}
								}
							}
						}
					}
				}
				JOINT RightCollar
				{
					OFFSET 0 0 0
					CHANNELS 3 Zrotation Yrotation Xrotation
					JOINT RightShoulder
					{
						OFFSET -3.40955 0.64424 0.14010
CHANNELS 3 Zrotation Xrotation Yrotation
						JOINT RightElbow
						{
OFFSET 0 -5.881760 -0.000000
CHANNELS 3 Zrotation Xrotation Yrotation
							JOINT RightWrist
							{
OFFSET 0 -3.281560 0.000000
CHANNELS 3 Zrotation Xrotation Yrotation
								JOINT rhand
								{
									OFFSET 0 0 0
CHANNELS 3 Zrotation Xrotation Yrotation
									JOINT RFingers
									{
OFFSET 0 -0.863130 0.000000
CHANNELS 3 Zrotation Xrotation Yrotation
										End Site
										{
OFFSET 0 -0.695870 0.000000
										}
									}
								}
								JOINT RThumb
								{
OFFSET 0 0.000000 0.000000
CHANNELS 3 Zrotation Xrotation Yrotation
									End Site
									{
OFFSET 0 -0.706500 0.706500
									}
								}
							}
						}
					}
				}
			}
		}
	}
}
MOTION
Frames: 7
Frame Time: 0.008333333333333333
10.237518 10.107046 -19.434129 -2.577422 0.845559 -32.511059 0.000000 0.000000 0.000000 -1.404887 4.940996 -59.154994 11.996026 18.388918 65.976208 0.000000 0.000000 0.000000 0.000000 0.000000 0.000000 0.000000 0.000000 0.000000 3.442875 2.197419 -55.492507 -12.341663 -18.531425 67.067785 -0.038993 9.811380 14.606846 -0.310229 3.561452 -9.848053 6.423386 -1.474572 24.514636 -0.689024 -0.454861 9.008917 -4.301920 -0.101681 -3.703655 15.473542 8.496673 6.040654 -28.235655 6.842590 -37.073471 -15.053913 4.551552 -10.658543 0.000000 0.000000 0.000000 27.942417 7.944476 -10.737213 148.469379 -42.169510 107.575349 -34.881107 -55.586812 -42.972706 0.000000 0.000000 0.000000 -7.125000 0.000000 0.000000 -77.686861 56.937726 36.357383 0.000000 0.000000 0.000000 -11.342338 17.866091 29.638743 -132.742732 -51.827406 -95.999449 29.688499 44.463798 -28.538945 0.000000 0.000000 0.000000 7.125000 0.000000 0.000000 32.744973 1.212173 39.228496
10.202688 10.136994 -19.406041 -2.855225 3.563693 -32.351553 0.000000 0.000000 0.000000 -3.311207 3.441491 -59.480324 11.862871 18.332031 65.553470 0.000000 0.000000 0.000000 0.000000 0.000000 0.000000 0.000000 0.000000 0.000000 1.764680 0.706328 -55.368499 -12.561339 -18.617941 67.757263 -0.030048 9.989519 14.708591 -0.077027 1.776744 -4.889339 6.468502 -1.230385 24.335836 -0.771123 -0.154182 10.400756 -4.490398 0.157641 -2.040678 13.989865 9.545876 7.598582 -28.126017 8.661590 -34.730003 -14.310928 5.775339 -9.683095 0.000000 0.000000 0.000000 25.474482 1.840911 -8.310645 152.391350 -38.751845 110.121626 -32.232982 -62.231962 -43.118664 0.000000 0.000000 0.000000 -7.125000 0.000000 0.000000 -76.006475 57.655317 36.160525 0.000000 0.000000 0.000000 -11.294711 21.357668 27.020417 -135.447217 -50.547347 -98.107112 36.420947 48.531938 -26.817312 0.000000 0.000000 0.000000 7.125000 0.000000 0.000000 35.643727 0.894880 45.165412
10.164829 10.119267 -19.405779 -2.858294 3.168517 -32.150777 0.000000 0.000000 0.000000 -2.923257 4.329178 -59.936854 11.837154 18.320975 65.471735 0.000000 0.000000 0.000000 0.000000 0.000000 0.000000 0.000000 0.000000 0.000000 1.809001 2.520727 -55.952125 -12.810601 -18.712753 68.536273 -0.086055 9.325380 14.698486 -0.034274 0.833018 -2.293997 7.181770 -1.053851 24.282978 -1.496281 0.178038 11.324118 -5.769866 0.441358 -0.917008 15.467958 10.378305 9.900850 -27.761501 11.043274 -30.608244 -13.824861 6.877591 -7.984036 0.000000 0.000000 0.000000 23.547495 -4.748772 -13.003227 154.711986 -36.496922 111.539389 -25.376411 -62.786642 -37.139525 0.000000 0.000000 0.000000 -7.125000 0.000000 0.000000 -63.104580 56.227886 23.803114 0.000000 0.000000 0.000000 -11.055156 18.706989 26.394636 -135.827091 -50.356762 -98.400029 44.459945 57.159338 -25.057044 0.000000 0.000000 0.000000 7.125000 0.000000 0.000000 38.597079 -1.423551 54.057260
10.185968 10.136649 -19.408371 -2.005113 2.657713 -31.689609 0.000000 0.000000 0.000000 -3.113690 4.424170 -59.501217 11.666053 18.245911 64.926241 0.000000 0.000000 0.000000 0.000000 0.000000 0.000000 0.000000 0.000000 0.000000 1.282719 3.339270 -58.077073 -13.815212 -19.056991 71.639418 0.041260 7.315309 9.437092 -1.142809 6.787237 -19.087111 6.235454 -1.785011 24.731083 -1.404762 -0.961747 11.392655 -4.843332 -0.188568 -1.233542 15.504995 9.779357 13.267544 -27.027830 10.994293 -28.210797 -13.583508 6.896838 -7.955422 0.000000 0.000000 0.000000 19.283490 -8.277714 -20.297945 154.091647 -37.118071 111.167659 -33.679805 -70.388729 -35.992008 0.000000 0.000000 0.000000 -7.125000 0.000000 0.000000 -67.901481 53.814222 22.490265 0.000000 0.000000 0.000000 -11.831283 12.875242 27.158962 -138.715425 -48.812765 -100.599510 41.581272 61.229446 -26.140566 0.000000 0.000000 0.000000 7.125000 0.000000 0.000000 37.537630 -0.699901 50.737561
10.219465 10.162102 -19.395141 -1.260107 1.792546 -30.762134 0.000000 0.000000 0.000000 -3.012973 4.522210 -60.073466 11.681058 18.252493 64.974078 0.000000 0.000000 0.000000 0.000000 0.000000 0.000000 0.000000 0.000000 0.000000 0.698158 3.722623 -60.038409 -14.717118 -19.317292 74.383087 -0.076621 8.036870 12.906723 -0.526310 4.537363 -12.610382 4.736153 -2.790645 25.624794 -0.864836 -2.565437 12.466954 -2.982448 -1.042863 -0.601636 14.988313 9.616731 9.566452 -24.950706 10.844450 -25.956811 -12.035171 6.488521 -6.786914 0.000000 0.000000 0.000000 17.865494 -10.260143 -24.812464 152.955469 -38.221547 110.473372 -32.853588 -64.318516 -36.768613 0.000000 0.000000 0.000000 -7.125000 0.000000 0.000000 -68.240962 54.408817 23.879848 0.000000 0.000000 0.000000 -11.824603 5.006637 28.121447 -143.167020 -46.077309 -103.880311 29.493805 51.536653 -27.560845 0.000000 0.000000 0.000000 7.125000 0.000000 0.000000 32.803800 2.133124 38.714158
10.251110 10.201461 -19.373032 -1.047582 0.088607 -29.414632 0.000000 0.000000 0.000000 -2.012314 5.222276 -61.469696 11.882091 18.340358 65.614617 0.000000 0.000000 0.000000 0.000000 0.000000 0.000000 0.000000 0.000000 0.000000 1.725724 4.789813 -60.135657 -13.875483 -19.075808 71.823844 0.162582 10.695879 12.403824 -1.197702 6.910359 -19.463247 3.670174 -3.939471 26.512166 0.059851 -4.233203 12.052975 -0.881088 -1.990481 -1.485085 14.218656 6.726133 13.228480 -21.670910 7.516316 -26.872844 -11.146838 4.676519 -8.874302 0.000000 0.000000 0.000000 17.497398 -6.738969 -24.984226 152.301050 -38.837637 110.065652 -30.147388 -58.217591 -34.617162 0.000000 0.000000 0.000000 -7.125000 0.000000 0.000000 -63.787422 53.743326 19.842163 0.000000 0.000000 0.000000 -12.529740 3.480464 30.495657 -145.129688 -44.719327 -105.277939 19.374497 38.980792 -28.560275 0.000000 0.000000 0.000000 7.125000 0.000000 0.000000 28.075589 2.608298 30.798057
10.255659 10.229256 -19.299875 -0.220224 -0.285858 -27.855362 0.000000 0.000000 0.000000 -2.417971 5.422097 -63.035427 12.020539 18.399329 66.053896 0.000000 0.000000 0.000000 0.000000 0.000000 0.000000 0.000000 0.000000 0.000000 1.543751 4.131355 -62.256083 -13.927664 -19.091946 71.983473 0.101351 10.473603 13.204647 -0.189937 2.802737 -7.730318 1.079084 -4.783708 26.822467 0.586883 -5.931518 12.691087 1.587256 -2.979926 -0.680648 15.767597 6.266474 13.908892 -20.887702 7.540032 -26.694598 -11.152157 4.461614 -8.916498 0.000000 0.000000 0.000000 17.763443 -5.655761 -21.887839 152.312781 -38.826699 110.073032 -24.071846 -55.114102 -33.654493 0.000000 0.000000 0.000000 -7.125000 0.000000 0.000000 -58.140337 54.380481 17.907283 0.000000 0.000000 0.000000 -13.878692 3.876976 30.458064 -145.249761 -44.632848 -105.362309 24.191307 41.882835 -29.792546 0.000000 0.000000 0.000000 7.125000 0.000000 0.000000 30.182025 0.987188 34.983126
